# xmcd CD database file
#
# Track frame offsets:
#	150
#	18035
#	37260
#
# Disc length: 828 seconds
#
# Revision: 1
# Processed by: cddbd v1.5.2PL0 Copyright (c) Steve Scherf et al.
# Submitted via: CDex 1.70beta2
#
DISCID=1b033a03
DTITLE=cool drive makers - カラーベイビー
DYEAR=2000
DGENRE=JPop
TTITLE0=カラーベイビー
TTITLE1=DRIVE HOME 〜Oh! Yeah!〜(tiny hands mix)
TTITLE2=SMOKY LIFE(99.12.3 LIVE at Shibuya Kokaido)
EXTD=YEAR: 2000
EXTT0=
EXTT1=
EXTT2=
PLAYORDER=
